<svg width="443" height="153" viewBox="0 0 443 153" fill="none" xmlns="http://www.w3.org/2000/svg">
<g clip-path="url(#clip0_74_54)">
<path fill-rule="evenodd" clip-rule="evenodd" d="M357.438 83.5474C357.726 72.6723 362.701 42.0467 383.75 14.904C363.693 45.4359 361.016 77.7973 361.256 84.8245C381.346 72.8238 409.265 24.7259 389.981 0C341.246 12.1546 344.054 64.7836 357.438 83.5474Z" fill="#6AEABC"/>
<path fill-rule="evenodd" clip-rule="evenodd" d="M363.225 92.805C363.185 92.7775 363.145 92.75 363.105 92.7226C363.21 92.5823 363.316 92.441 363.423 92.2988L363.225 92.805ZM363.672 93.1081C377.742 102.551 412.511 117.507 443 71.9546L442.999 71.9552C440.515 73.7878 436.158 77.002 428.951 75.6198C425.675 74.9914 422.9 72.8978 419.874 70.6147C414.663 66.6836 408.708 62.1906 398.166 63.6477C386.675 65.2359 376.97 75.1116 369.433 84.4785C373.246 82.6274 378.374 80.5618 383.695 80.3845C385.676 80.3185 387.416 80.5461 389.779 80.8551C394.551 81.4794 401.86 82.4354 418.812 81.9726C415.391 82.5834 410.26 83.0721 403.419 83.0721C400.471 83.0721 397.903 83.0131 395.561 82.9592C389.649 82.8233 385.175 82.7205 379.663 83.6829C374.418 84.5987 367.057 89.2569 363.672 93.1081Z" fill="#6AEABC"/>
<path d="M32.864 153.28C26.3787 153.28 20.7467 151.957 15.968 149.312C11.1893 146.667 7.47733 142.912 4.832 138.048C2.18667 133.099 0.864 127.296 0.864 120.64C0.864 113.984 2.18667 108.224 4.832 103.36C7.47733 98.496 11.1893 94.7413 15.968 92.096C20.7467 89.4507 26.3787 88.128 32.864 88.128C39.3493 88.128 44.9813 89.4507 49.76 92.096C54.5387 94.7413 58.2507 98.496 60.896 103.36C63.5413 108.224 64.864 113.984 64.864 120.64C64.864 127.296 63.5413 133.099 60.896 138.048C58.2507 142.912 54.5387 146.667 49.76 149.312C44.9813 151.957 39.3493 153.28 32.864 153.28ZM32.864 141.12C37.6427 141.12 41.4827 139.413 44.384 136C47.2853 132.501 48.736 127.381 48.736 120.64C48.736 113.813 47.2853 108.736 44.384 105.408C41.4827 101.995 37.6427 100.288 32.864 100.288C28.0853 100.288 24.2453 101.995 21.344 105.408C18.4427 108.736 16.992 113.813 16.992 120.64C16.992 127.381 18.4427 132.501 21.344 136C24.2453 139.413 28.0853 141.12 32.864 141.12ZM99.446 153.28C85.1953 153.28 78.07 145.301 78.07 129.344V68.8C78.07 63.424 80.7153 60.736 86.006 60.736C91.382 60.736 94.07 63.424 94.07 68.8V128.576C94.07 136.256 97.27 140.096 103.67 140.096C104.353 140.096 104.993 140.096 105.59 140.096C106.187 140.011 106.785 139.925 107.382 139.84C108.577 139.669 109.387 140.011 109.814 140.864C110.241 141.632 110.454 143.253 110.454 145.728C110.454 147.861 110.027 149.525 109.174 150.72C108.321 151.915 106.913 152.64 104.95 152.896C103.158 153.152 101.323 153.28 99.446 153.28ZM139.553 153.28C135.03 153.28 130.977 152.427 127.393 150.72C123.894 148.928 121.121 146.539 119.073 143.552C117.11 140.565 116.129 137.195 116.129 133.44C116.129 128.832 117.324 125.205 119.713 122.56C122.102 119.829 125.985 117.867 131.361 116.672C136.737 115.477 143.948 114.88 152.993 114.88H157.473V112.192C157.473 107.925 156.534 104.853 154.657 102.976C152.78 101.099 149.622 100.16 145.185 100.16C142.71 100.16 140.022 100.459 137.121 101.056C134.305 101.653 131.318 102.677 128.161 104.128C126.113 105.067 124.406 105.195 123.041 104.512C121.676 103.744 120.737 102.592 120.225 101.056C119.798 99.4347 119.884 97.8133 120.481 96.192C121.164 94.5707 122.486 93.376 124.449 92.608C128.374 90.9867 132.129 89.8347 135.713 89.152C139.382 88.4693 142.71 88.128 145.697 88.128C154.828 88.128 161.612 90.2613 166.049 94.528C170.486 98.7093 172.705 105.237 172.705 114.112V144.832C172.705 150.293 170.23 153.024 165.281 153.024C160.246 153.024 157.729 150.293 157.729 144.832V142.016C156.278 145.515 153.974 148.288 150.817 150.336C147.66 152.299 143.905 153.28 139.553 153.28ZM142.881 142.272C147.062 142.272 150.518 140.821 153.249 137.92C156.065 135.019 157.473 131.349 157.473 126.912V124.096H153.121C145.1 124.096 139.51 124.736 136.353 126.016C133.281 127.211 131.745 129.429 131.745 132.672C131.745 135.488 132.726 137.792 134.689 139.584C136.652 141.376 139.382 142.272 142.881 142.272ZM196.881 153.024C191.59 153.024 188.945 150.293 188.945 144.832V68.8C188.945 63.424 191.59 60.736 196.881 60.736C202.257 60.736 204.945 63.424 204.945 68.8V98.496C207.078 95.0827 209.937 92.5227 213.521 90.816C217.105 89.024 221.073 88.128 225.425 88.128C240.188 88.128 247.569 96.704 247.569 113.856V144.832C247.569 150.293 244.924 153.024 239.633 153.024C234.257 153.024 231.569 150.293 231.569 144.832V114.624C231.569 109.76 230.63 106.219 228.753 104C226.961 101.781 224.145 100.672 220.305 100.672C215.612 100.672 211.857 102.165 209.041 105.152C206.31 108.053 204.945 111.936 204.945 116.8V144.832C204.945 150.293 202.257 153.024 196.881 153.024ZM271.756 76.608C268.769 76.608 266.423 75.8827 264.716 74.432C263.095 72.896 262.284 70.8053 262.284 68.16C262.284 65.4293 263.095 63.3387 264.716 61.888C266.423 60.4373 268.769 59.712 271.756 59.712C278.071 59.712 281.228 62.528 281.228 68.16C281.228 73.792 278.071 76.608 271.756 76.608ZM271.756 152.896C269.196 152.896 267.233 152.128 265.868 150.592C264.503 149.056 263.82 146.923 263.82 144.192V97.216C263.82 91.4133 266.465 88.512 271.756 88.512C277.132 88.512 279.82 91.4133 279.82 97.216V144.192C279.82 146.923 279.137 149.056 277.772 150.592C276.407 152.128 274.401 152.896 271.756 152.896ZM304.381 153.024C299.09 153.024 296.445 150.293 296.445 144.832V96.448C296.445 91.072 299.048 88.384 304.253 88.384C309.458 88.384 312.061 91.072 312.061 96.448V99.136C314.194 95.552 317.053 92.8213 320.637 90.944C324.306 89.0667 328.402 88.128 332.925 88.128C347.688 88.128 355.069 96.704 355.069 113.856V144.832C355.069 150.293 352.424 153.024 347.133 153.024C341.757 153.024 339.069 150.293 339.069 144.832V114.624C339.069 109.76 338.13 106.219 336.253 104C334.461 101.781 331.645 100.672 327.805 100.672C323.112 100.672 319.357 102.165 316.541 105.152C313.81 108.053 312.445 111.936 312.445 116.8V144.832C312.445 150.293 309.757 153.024 304.381 153.024Z" fill="#322B5D"/>
</g>
<defs>
<clipPath id="clip0_74_54">
<rect width="443" height="153" fill="white"/>
</clipPath>
</defs>
</svg>
